<svg xmlns="http://www.w3.org/2000/svg" width="48" height="48" viewBox="0 0 48 48">
    <path fill="#FFF" fill-rule="evenodd" d="M47.138 36.501L34.634 24l12.5-12.502a1.326 1.326 0 0 0 0-1.875L38.377.863a1.327 1.327 0 0 0-1.876 0L24 13.365 11.5.863c-.497-.498-1.378-.498-1.876 0L.865 9.621a1.328 1.328 0 0 0 0 1.876l12.502 12.502L.863 36.502a1.329 1.329 0 0 0 0 1.876l8.757 8.758a1.33 1.33 0 0 0 1.876 0l12.503-12.503 12.504 12.502a1.324 1.324 0 0 0 1.877 0l8.759-8.758a1.327 1.327 0 0 0-.001-1.876z"/>
</svg>
